<?xml version="1.0" encoding="UTF-8" standalone="no"?>
<!DOCTYPE svg PUBLIC "-//W3C//DTD SVG 1.1//EN"
 "http://www.w3.org/Graphics/SVG/1.1/DTD/svg11.dtd">
<!-- Generated by graphviz version 2.30.1 (20180828.1746)
 -->
<!-- Title: %3 Pages: 1 -->
<svg width="1840pt" height="692pt"
 viewBox="0.00 0.00 1840.00 692.00" xmlns="http://www.w3.org/2000/svg" xmlns:xlink="http://www.w3.org/1999/xlink">
<g id="graph0" class="graph" transform="scale(1 1) rotate(0) translate(4 688)">
<title>%3</title>
<polygon fill="white" stroke="white" points="-4,5 -4,-688 1837,-688 1837,5 -4,5"/>
<!-- [root] module.container.docker_container.container_id (expand) -->
<g id="node1" class="node"><title>[root] module.container.docker_container.container_id (expand)</title>
<polygon fill="none" stroke="black" points="1022.25,-396 743.75,-396 743.75,-360 1022.25,-360 1022.25,-396"/>
<text text-anchor="middle" x="883" y="-374.3" font-family="Times,serif" font-size="14.00">module.container.docker_container.container_id</text>
</g>
<!-- [root] module.container.var.ext_port (expand) -->
<g id="node15" class="node"><title>[root] module.container.var.ext_port (expand)</title>
<ellipse fill="none" stroke="black" cx="171" cy="-306" rx="171.377" ry="18"/>
<text text-anchor="middle" x="171" y="-302.3" font-family="Times,serif" font-size="14.00">[root] module.container.var.ext_port (expand)</text>
</g>
<!-- [root] module.container.docker_container.container_id (expand)&#45;&gt;[root] module.container.var.ext_port (expand) -->
<g id="edge7" class="edge"><title>[root] module.container.docker_container.container_id (expand)&#45;&gt;[root] module.container.var.ext_port (expand)</title>
<path fill="none" stroke="black" d="M743.605,-363.295C615.402,-350.691 426.739,-332.143 301.449,-319.825"/>
<polygon fill="black" stroke="black" points="301.706,-316.334 291.412,-318.838 301.021,-323.3 301.706,-316.334"/>
</g>
<!-- [root] module.container.var.image (expand) -->
<g id="node16" class="node"><title>[root] module.container.var.image (expand)</title>
<ellipse fill="none" stroke="black" cx="1228" cy="-306" rx="164.153" ry="18"/>
<text text-anchor="middle" x="1228" y="-302.3" font-family="Times,serif" font-size="14.00">[root] module.container.var.image (expand)</text>
</g>
<!-- [root] module.container.docker_container.container_id (expand)&#45;&gt;[root] module.container.var.image (expand) -->
<g id="edge8" class="edge"><title>[root] module.container.docker_container.container_id (expand)&#45;&gt;[root] module.container.var.image (expand)</title>
<path fill="none" stroke="black" d="M966.955,-359.966C1020.66,-349.07 1090.07,-334.987 1143.81,-324.081"/>
<polygon fill="black" stroke="black" points="1144.56,-327.502 1153.66,-322.084 1143.16,-320.642 1144.56,-327.502"/>
</g>
<!-- [root] module.container.var.int_port (expand) -->
<g id="node17" class="node"><title>[root] module.container.var.int_port (expand)</title>
<ellipse fill="none" stroke="black" cx="532" cy="-306" rx="170.402" ry="18"/>
<text text-anchor="middle" x="532" y="-302.3" font-family="Times,serif" font-size="14.00">[root] module.container.var.int_port (expand)</text>
</g>
<!-- [root] module.container.docker_container.container_id (expand)&#45;&gt;[root] module.container.var.int_port (expand) -->
<g id="edge9" class="edge"><title>[root] module.container.docker_container.container_id (expand)&#45;&gt;[root] module.container.var.int_port (expand)</title>
<path fill="none" stroke="black" d="M797.585,-359.966C743.044,-349.089 672.579,-335.036 617.938,-324.139"/>
<polygon fill="black" stroke="black" points="618.418,-320.666 607.927,-322.142 617.049,-327.53 618.418,-320.666"/>
</g>
<!-- [root] module.container.var.name (expand) -->
<g id="node18" class="node"><title>[root] module.container.var.name (expand)</title>
<ellipse fill="none" stroke="black" cx="883" cy="-306" rx="162.228" ry="18"/>
<text text-anchor="middle" x="883" y="-302.3" font-family="Times,serif" font-size="14.00">[root] module.container.var.name (expand)</text>
</g>
<!-- [root] module.container.docker_container.container_id (expand)&#45;&gt;[root] module.container.var.name (expand) -->
<g id="edge10" class="edge"><title>[root] module.container.docker_container.container_id (expand)&#45;&gt;[root] module.container.var.name (expand)</title>
<path fill="none" stroke="black" d="M883,-359.697C883,-351.983 883,-342.712 883,-334.112"/>
<polygon fill="black" stroke="black" points="886.5,-334.104 883,-324.104 879.5,-334.104 886.5,-334.104"/>
</g>
<!-- [root] module.image.docker_image.image_id (expand) -->
<g id="node2" class="node"><title>[root] module.image.docker_image.image_id (expand)</title>
<polygon fill="none" stroke="black" points="1438.25,-180 1209.75,-180 1209.75,-144 1438.25,-144 1438.25,-180"/>
<text text-anchor="middle" x="1324" y="-158.3" font-family="Times,serif" font-size="14.00">module.image.docker_image.image_id</text>
</g>
<!-- [root] module.image.var.image1 (expand) -->
<g id="node21" class="node"><title>[root] module.image.var.image1 (expand)</title>
<ellipse fill="none" stroke="black" cx="1096" cy="-90" rx="157.404" ry="18"/>
<text text-anchor="middle" x="1096" y="-86.3" font-family="Times,serif" font-size="14.00">[root] module.image.var.image1 (expand)</text>
</g>
<!-- [root] module.image.docker_image.image_id (expand)&#45;&gt;[root] module.image.var.image1 (expand) -->
<g id="edge22" class="edge"><title>[root] module.image.docker_image.image_id (expand)&#45;&gt;[root] module.image.var.image1 (expand)</title>
<path fill="none" stroke="black" d="M1268.52,-143.966C1235.16,-133.726 1192.64,-120.672 1158.16,-110.085"/>
<polygon fill="black" stroke="black" points="1158.79,-106.617 1148.2,-107.028 1156.74,-113.308 1158.79,-106.617"/>
</g>
<!-- [root] provider[&quot;registry.terraform.io/kreuzwerker/docker&quot;] -->
<g id="node5" class="node"><title>[root] provider[&quot;registry.terraform.io/kreuzwerker/docker&quot;]</title>
<polygon fill="none" stroke="black" points="1552,-108 1271.99,-90 1552,-72 1832.01,-90 1552,-108"/>
<text text-anchor="middle" x="1552" y="-86.3" font-family="Times,serif" font-size="14.00">provider[&quot;registry.terraform.io/kreuzwerker/docker&quot;]</text>
</g>
<!-- [root] module.image.docker_image.image_id (expand)&#45;&gt;[root] provider[&quot;registry.terraform.io/kreuzwerker/docker&quot;] -->
<g id="edge23" class="edge"><title>[root] module.image.docker_image.image_id (expand)&#45;&gt;[root] provider[&quot;registry.terraform.io/kreuzwerker/docker&quot;]</title>
<path fill="none" stroke="black" d="M1379.48,-143.966C1414.91,-133.09 1460.67,-119.04 1496.16,-108.143"/>
<polygon fill="black" stroke="black" points="1497.35,-111.44 1505.88,-105.159 1495.3,-104.748 1497.35,-111.44"/>
</g>
<!-- [root] output.ContainerName -->
<g id="node3" class="node"><title>[root] output.ContainerName</title>
<polygon fill="none" stroke="black" points="653.25,-540 518.75,-540 518.75,-504 659.25,-504 659.25,-534 653.25,-540"/>
<polyline fill="none" stroke="black" points="653.25,-540 653.25,-534 "/>
<polyline fill="none" stroke="black" points="659.25,-534 653.25,-534 "/>
<text text-anchor="middle" x="589" y="-518.3" font-family="Times,serif" font-size="14.00">output.ContainerName</text>
</g>
<!-- [root] module.container.output.container_name (expand) -->
<g id="node13" class="node"><title>[root] module.container.output.container_name (expand)</title>
<ellipse fill="none" stroke="black" cx="594" cy="-450" rx="211.322" ry="18"/>
<text text-anchor="middle" x="594" y="-446.3" font-family="Times,serif" font-size="14.00">[root] module.container.output.container_name (expand)</text>
</g>
<!-- [root] output.ContainerName&#45;&gt;[root] module.container.output.container_name (expand) -->
<g id="edge27" class="edge"><title>[root] output.ContainerName&#45;&gt;[root] module.container.output.container_name (expand)</title>
<path fill="none" stroke="black" d="M590.236,-503.697C590.787,-495.983 591.449,-486.712 592.063,-478.112"/>
<polygon fill="black" stroke="black" points="595.557,-478.328 592.778,-468.104 588.575,-477.83 595.557,-478.328"/>
</g>
<!-- [root] output.IPAddress -->
<g id="node4" class="node"><title>[root] output.IPAddress</title>
<polygon fill="none" stroke="black" points="1039.25,-540 936.75,-540 936.75,-504 1045.25,-504 1045.25,-534 1039.25,-540"/>
<polyline fill="none" stroke="black" points="1039.25,-540 1039.25,-534 "/>
<polyline fill="none" stroke="black" points="1045.25,-534 1039.25,-534 "/>
<text text-anchor="middle" x="991" y="-518.3" font-family="Times,serif" font-size="14.00">output.IPAddress</text>
</g>
<!-- [root] module.container.output.ip (expand) -->
<g id="node14" class="node"><title>[root] module.container.output.ip (expand)</title>
<ellipse fill="none" stroke="black" cx="986" cy="-450" rx="161.254" ry="18"/>
<text text-anchor="middle" x="986" y="-446.3" font-family="Times,serif" font-size="14.00">[root] module.container.output.ip (expand)</text>
</g>
<!-- [root] output.IPAddress&#45;&gt;[root] module.container.output.ip (expand) -->
<g id="edge28" class="edge"><title>[root] output.IPAddress&#45;&gt;[root] module.container.output.ip (expand)</title>
<path fill="none" stroke="black" d="M989.764,-503.697C989.213,-495.983 988.551,-486.712 987.937,-478.112"/>
<polygon fill="black" stroke="black" points="991.425,-477.83 987.222,-468.104 984.443,-478.328 991.425,-477.83"/>
</g>
<!-- [root] var.container_name -->
<g id="node6" class="node"><title>[root] var.container_name</title>
<polygon fill="none" stroke="black" points="960.25,-252 843.75,-252 843.75,-216 966.25,-216 966.25,-246 960.25,-252"/>
<polyline fill="none" stroke="black" points="960.25,-252 960.25,-246 "/>
<polyline fill="none" stroke="black" points="966.25,-246 960.25,-246 "/>
<text text-anchor="middle" x="905" y="-230.3" font-family="Times,serif" font-size="14.00">var.container_name</text>
</g>
<!-- [root] var.ext_port -->
<g id="node7" class="node"><title>[root] var.ext_port</title>
<polygon fill="none" stroke="black" points="205,-252 131,-252 131,-216 211,-216 211,-246 205,-252"/>
<polyline fill="none" stroke="black" points="205,-252 205,-246 "/>
<polyline fill="none" stroke="black" points="211,-246 205,-246 "/>
<text text-anchor="middle" x="171" y="-230.3" font-family="Times,serif" font-size="14.00">var.ext_port</text>
</g>
<!-- [root] var.image -->
<g id="node8" class="node"><title>[root] var.image</title>
<polygon fill="none" stroke="black" points="1209.25,-36 1146.75,-36 1146.75,-0 1215.25,-0 1215.25,-30 1209.25,-36"/>
<polyline fill="none" stroke="black" points="1209.25,-36 1209.25,-30 "/>
<polyline fill="none" stroke="black" points="1215.25,-30 1209.25,-30 "/>
<text text-anchor="middle" x="1181" y="-14.3" font-family="Times,serif" font-size="14.00">var.image</text>
</g>
<!-- [root] var.int_port -->
<g id="node9" class="node"><title>[root] var.int_port</title>
<polygon fill="none" stroke="black" points="544.25,-252 471.75,-252 471.75,-216 550.25,-216 550.25,-246 544.25,-252"/>
<polyline fill="none" stroke="black" points="544.25,-252 544.25,-246 "/>
<polyline fill="none" stroke="black" points="550.25,-246 544.25,-246 "/>
<text text-anchor="middle" x="511" y="-230.3" font-family="Times,serif" font-size="14.00">var.int_port</text>
</g>
<!-- [root] meta.count&#45;boundary (EachMode fixup) -->
<g id="node10" class="node"><title>[root] meta.count&#45;boundary (EachMode fixup)</title>
<ellipse fill="none" stroke="black" cx="798" cy="-594" rx="176.202" ry="18"/>
<text text-anchor="middle" x="798" y="-590.3" font-family="Times,serif" font-size="14.00">[root] meta.count&#45;boundary (EachMode fixup)</text>
</g>
<!-- [root] module.container (close) -->
<g id="node11" class="node"><title>[root] module.container (close)</title>
<ellipse fill="none" stroke="black" cx="798" cy="-522" rx="120.334" ry="18"/>
<text text-anchor="middle" x="798" y="-518.3" font-family="Times,serif" font-size="14.00">[root] module.container (close)</text>
</g>
<!-- [root] meta.count&#45;boundary (EachMode fixup)&#45;&gt;[root] module.container (close) -->
<g id="edge1" class="edge"><title>[root] meta.count&#45;boundary (EachMode fixup)&#45;&gt;[root] module.container (close)</title>
<path fill="none" stroke="black" d="M798,-575.697C798,-567.983 798,-558.712 798,-550.112"/>
<polygon fill="black" stroke="black" points="801.5,-550.104 798,-540.104 794.5,-550.104 801.5,-550.104"/>
</g>
<!-- [root] module.image (close) -->
<g id="node12" class="node"><title>[root] module.image (close)</title>
<ellipse fill="none" stroke="black" cx="1341" cy="-378" rx="109.261" ry="18"/>
<text text-anchor="middle" x="1341" y="-374.3" font-family="Times,serif" font-size="14.00">[root] module.image (close)</text>
</g>
<!-- [root] meta.count&#45;boundary (EachMode fixup)&#45;&gt;[root] module.image (close) -->
<g id="edge2" class="edge"><title>[root] meta.count&#45;boundary (EachMode fixup)&#45;&gt;[root] module.image (close)</title>
<path fill="none" stroke="black" d="M900.009,-579.269C947.744,-570.989 1004.79,-558.393 1054,-540 1152.39,-503.223 1257.5,-436.225 1308.92,-401.386"/>
<polygon fill="black" stroke="black" points="1311,-404.201 1317.29,-395.675 1307.06,-398.418 1311,-404.201"/>
</g>
<!-- [root] meta.count&#45;boundary (EachMode fixup)&#45;&gt;[root] output.ContainerName -->
<g id="edge3" class="edge"><title>[root] meta.count&#45;boundary (EachMode fixup)&#45;&gt;[root] output.ContainerName</title>
<path fill="none" stroke="black" d="M749.263,-576.676C719.53,-566.718 681.279,-553.907 649.604,-543.298"/>
<polygon fill="black" stroke="black" points="650.596,-539.939 640.002,-540.082 648.373,-546.577 650.596,-539.939"/>
</g>
<!-- [root] meta.count&#45;boundary (EachMode fixup)&#45;&gt;[root] output.IPAddress -->
<g id="edge4" class="edge"><title>[root] meta.count&#45;boundary (EachMode fixup)&#45;&gt;[root] output.IPAddress</title>
<path fill="none" stroke="black" d="M843.25,-576.588C870.477,-566.713 905.373,-554.057 934.414,-543.524"/>
<polygon fill="black" stroke="black" points="935.811,-546.74 944.018,-540.04 933.424,-540.159 935.811,-546.74"/>
</g>
<!-- [root] module.container (close)&#45;&gt;[root] module.container.output.container_name (expand) -->
<g id="edge5" class="edge"><title>[root] module.container (close)&#45;&gt;[root] module.container.output.container_name (expand)</title>
<path fill="none" stroke="black" d="M752.218,-505.291C722.623,-495.135 683.844,-481.829 652.085,-470.931"/>
<polygon fill="black" stroke="black" points="653.067,-467.568 642.472,-467.633 650.795,-474.189 653.067,-467.568"/>
</g>
<!-- [root] module.container (close)&#45;&gt;[root] module.container.output.ip (expand) -->
<g id="edge6" class="edge"><title>[root] module.container (close)&#45;&gt;[root] module.container.output.ip (expand)</title>
<path fill="none" stroke="black" d="M840.66,-505.116C867.816,-495.005 903.218,-481.823 932.283,-471.001"/>
<polygon fill="black" stroke="black" points="933.726,-474.199 941.876,-467.429 931.283,-467.639 933.726,-474.199"/>
</g>
<!-- [root] module.image.output.image_out (expand) -->
<g id="node20" class="node"><title>[root] module.image.output.image_out (expand)</title>
<ellipse fill="none" stroke="black" cx="1324" cy="-234" rx="181.001" ry="18"/>
<text text-anchor="middle" x="1324" y="-230.3" font-family="Times,serif" font-size="14.00">[root] module.image.output.image_out (expand)</text>
</g>
<!-- [root] module.image (close)&#45;&gt;[root] module.image.output.image_out (expand) -->
<g id="edge21" class="edge"><title>[root] module.image (close)&#45;&gt;[root] module.image.output.image_out (expand)</title>
<path fill="none" stroke="black" d="M1368.63,-360.434C1380.98,-351.379 1394.26,-338.951 1401,-324 1407.58,-309.414 1408.44,-302.162 1401,-288 1394.32,-275.285 1383.05,-265.026 1371.17,-257.046"/>
<polygon fill="black" stroke="black" points="1372.8,-253.942 1362.46,-251.635 1369.11,-259.887 1372.8,-253.942"/>
</g>
<!-- [root] module.container.output.container_name (expand)&#45;&gt;[root] module.container.docker_container.container_id (expand) -->
<g id="edge11" class="edge"><title>[root] module.container.output.container_name (expand)&#45;&gt;[root] module.container.docker_container.container_id (expand)</title>
<path fill="none" stroke="black" d="M660.665,-432.853C702.974,-422.605 757.971,-409.284 802.681,-398.455"/>
<polygon fill="black" stroke="black" points="803.743,-401.798 812.638,-396.043 802.095,-394.995 803.743,-401.798"/>
</g>
<!-- [root] module.container.output.ip (expand)&#45;&gt;[root] module.container.docker_container.container_id (expand) -->
<g id="edge12" class="edge"><title>[root] module.container.output.ip (expand)&#45;&gt;[root] module.container.docker_container.container_id (expand)</title>
<path fill="none" stroke="black" d="M961.067,-432.055C947.754,-423.008 931.181,-411.744 916.734,-401.926"/>
<polygon fill="black" stroke="black" points="918.299,-398.758 908.061,-396.032 914.364,-404.547 918.299,-398.758"/>
</g>
<!-- [root] module.container (expand) -->
<g id="node19" class="node"><title>[root] module.container (expand)</title>
<ellipse fill="none" stroke="black" cx="697" cy="-234" rx="128.058" ry="18"/>
<text text-anchor="middle" x="697" y="-230.3" font-family="Times,serif" font-size="14.00">[root] module.container (expand)</text>
</g>
<!-- [root] module.container.var.ext_port (expand)&#45;&gt;[root] module.container (expand) -->
<g id="edge13" class="edge"><title>[root] module.container.var.ext_port (expand)&#45;&gt;[root] module.container (expand)</title>
<path fill="none" stroke="black" d="M272.73,-291.462C366.378,-278.999 504.458,-260.624 597.418,-248.252"/>
<polygon fill="black" stroke="black" points="597.945,-251.713 607.396,-246.925 597.022,-244.774 597.945,-251.713"/>
</g>
<!-- [root] module.container.var.ext_port (expand)&#45;&gt;[root] var.ext_port -->
<g id="edge14" class="edge"><title>[root] module.container.var.ext_port (expand)&#45;&gt;[root] var.ext_port</title>
<path fill="none" stroke="black" d="M171,-287.697C171,-279.983 171,-270.712 171,-262.112"/>
<polygon fill="black" stroke="black" points="174.5,-262.104 171,-252.104 167.5,-262.104 174.5,-262.104"/>
</g>
<!-- [root] module.container.var.image (expand)&#45;&gt;[root] module.container (expand) -->
<g id="edge15" class="edge"><title>[root] module.container.var.image (expand)&#45;&gt;[root] module.container (expand)</title>
<path fill="none" stroke="black" d="M1127.5,-291.751C1032.78,-279.265 891.647,-260.66 797.071,-248.192"/>
<polygon fill="black" stroke="black" points="797.294,-244.691 786.923,-246.854 796.379,-251.631 797.294,-244.691"/>
</g>
<!-- [root] module.container.var.image (expand)&#45;&gt;[root] module.image.output.image_out (expand) -->
<g id="edge16" class="edge"><title>[root] module.container.var.image (expand)&#45;&gt;[root] module.image.output.image_out (expand)</title>
<path fill="none" stroke="black" d="M1251.24,-288.055C1263.65,-279.008 1279.09,-267.744 1292.56,-257.926"/>
<polygon fill="black" stroke="black" points="1294.62,-260.751 1300.64,-252.032 1290.5,-255.095 1294.62,-260.751"/>
</g>
<!-- [root] module.container.var.int_port (expand)&#45;&gt;[root] module.container (expand) -->
<g id="edge17" class="edge"><title>[root] module.container.var.int_port (expand)&#45;&gt;[root] module.container (expand)</title>
<path fill="none" stroke="black" d="M571.103,-288.411C594.594,-278.445 624.649,-265.694 649.501,-255.151"/>
<polygon fill="black" stroke="black" points="650.908,-258.356 658.747,-251.228 648.174,-251.912 650.908,-258.356"/>
</g>
<!-- [root] module.container.var.int_port (expand)&#45;&gt;[root] var.int_port -->
<g id="edge18" class="edge"><title>[root] module.container.var.int_port (expand)&#45;&gt;[root] var.int_port</title>
<path fill="none" stroke="black" d="M526.809,-287.697C524.469,-279.898 521.653,-270.509 519.049,-261.829"/>
<polygon fill="black" stroke="black" points="522.357,-260.677 516.131,-252.104 515.652,-262.688 522.357,-260.677"/>
</g>
<!-- [root] module.container.var.name (expand)&#45;&gt;[root] module.container (expand) -->
<g id="edge19" class="edge"><title>[root] module.container.var.name (expand)&#45;&gt;[root] module.container (expand)</title>
<path fill="none" stroke="black" d="M839.391,-288.588C812.38,-278.422 777.537,-265.31 749.08,-254.6"/>
<polygon fill="black" stroke="black" points="750.286,-251.314 739.694,-251.068 747.82,-257.866 750.286,-251.314"/>
</g>
<!-- [root] module.container.var.name (expand)&#45;&gt;[root] var.container_name -->
<g id="edge20" class="edge"><title>[root] module.container.var.name (expand)&#45;&gt;[root] var.container_name</title>
<path fill="none" stroke="black" d="M888.438,-287.697C890.889,-279.898 893.84,-270.509 896.568,-261.829"/>
<polygon fill="black" stroke="black" points="899.965,-262.694 899.624,-252.104 893.287,-260.595 899.965,-262.694"/>
</g>
<!-- [root] module.image.output.image_out (expand)&#45;&gt;[root] module.image.docker_image.image_id (expand) -->
<g id="edge24" class="edge"><title>[root] module.image.output.image_out (expand)&#45;&gt;[root] module.image.docker_image.image_id (expand)</title>
<path fill="none" stroke="black" d="M1324,-215.697C1324,-207.983 1324,-198.712 1324,-190.112"/>
<polygon fill="black" stroke="black" points="1327.5,-190.104 1324,-180.104 1320.5,-190.104 1327.5,-190.104"/>
</g>
<!-- [root] module.image (expand) -->
<g id="node22" class="node"><title>[root] module.image (expand)</title>
<ellipse fill="none" stroke="black" cx="1012" cy="-18" rx="116.484" ry="18"/>
<text text-anchor="middle" x="1012" y="-14.3" font-family="Times,serif" font-size="14.00">[root] module.image (expand)</text>
</g>
<!-- [root] module.image.var.image1 (expand)&#45;&gt;[root] module.image (expand) -->
<g id="edge25" class="edge"><title>[root] module.image.var.image1 (expand)&#45;&gt;[root] module.image (expand)</title>
<path fill="none" stroke="black" d="M1075.67,-72.055C1064.94,-63.1128 1051.61,-52.0054 1039.92,-42.268"/>
<polygon fill="black" stroke="black" points="1042.07,-39.5021 1032.15,-35.789 1037.59,-44.8797 1042.07,-39.5021"/>
</g>
<!-- [root] module.image.var.image1 (expand)&#45;&gt;[root] var.image -->
<g id="edge26" class="edge"><title>[root] module.image.var.image1 (expand)&#45;&gt;[root] var.image</title>
<path fill="none" stroke="black" d="M1116.58,-72.055C1127.35,-63.1785 1140.72,-52.1686 1152.48,-42.483"/>
<polygon fill="black" stroke="black" points="1154.82,-45.0905 1160.32,-36.0316 1150.37,-39.687 1154.82,-45.0905"/>
</g>
<!-- [root] provider[&quot;registry.terraform.io/kreuzwerker/docker&quot;] (close) -->
<g id="node23" class="node"><title>[root] provider[&quot;registry.terraform.io/kreuzwerker/docker&quot;] (close)</title>
<ellipse fill="none" stroke="black" cx="1238" cy="-594" rx="245.992" ry="18"/>
<text text-anchor="middle" x="1238" y="-590.3" font-family="Times,serif" font-size="14.00">[root] provider[&quot;registry.terraform.io/kreuzwerker/docker&quot;] (close)</text>
</g>
<!-- [root] provider[&quot;registry.terraform.io/kreuzwerker/docker&quot;] (close)&#45;&gt;[root] module.container.docker_container.container_id (expand) -->
<g id="edge29" class="edge"><title>[root] provider[&quot;registry.terraform.io/kreuzwerker/docker&quot;] (close)&#45;&gt;[root] module.container.docker_container.container_id (expand)</title>
<path fill="none" stroke="black" d="M1234.51,-575.946C1226.75,-542.577 1204.73,-468.715 1156,-432 1135.44,-416.51 1084.65,-404.729 1032.37,-396.254"/>
<polygon fill="black" stroke="black" points="1032.68,-392.759 1022.25,-394.657 1031.59,-399.673 1032.68,-392.759"/>
</g>
<!-- [root] root -->
<g id="node24" class="node"><title>[root] root</title>
<ellipse fill="none" stroke="black" cx="1018" cy="-666" rx="47.169" ry="18"/>
<text text-anchor="middle" x="1018" y="-662.3" font-family="Times,serif" font-size="14.00">[root] root</text>
</g>
<!-- [root] root&#45;&gt;[root] meta.count&#45;boundary (EachMode fixup) -->
<g id="edge30" class="edge"><title>[root] root&#45;&gt;[root] meta.count&#45;boundary (EachMode fixup)</title>
<path fill="none" stroke="black" d="M982.653,-653.753C949.327,-643.149 898.69,-627.038 858.867,-614.367"/>
<polygon fill="black" stroke="black" points="859.843,-611.005 849.253,-611.308 857.721,-617.675 859.843,-611.005"/>
</g>
<!-- [root] root&#45;&gt;[root] provider[&quot;registry.terraform.io/kreuzwerker/docker&quot;] (close) -->
<g id="edge31" class="edge"><title>[root] root&#45;&gt;[root] provider[&quot;registry.terraform.io/kreuzwerker/docker&quot;] (close)</title>
<path fill="none" stroke="black" d="M1053.35,-653.753C1086.34,-643.256 1136.29,-627.363 1175.92,-614.752"/>
<polygon fill="black" stroke="black" points="1177.03,-618.072 1185.5,-611.704 1174.91,-611.401 1177.03,-618.072"/>
</g>
</g>
</svg>
