<?xml version="1.0" encoding="UTF-8" standalone="no"?>
<!DOCTYPE svg PUBLIC "-//W3C//DTD SVG 1.1//EN"
 "http://www.w3.org/Graphics/SVG/1.1/DTD/svg11.dtd">
<!-- Generated by graphviz version 2.30.1 (20180828.1746)
 -->
<!-- Title: %3 Pages: 1 -->
<svg width="1878pt" height="692pt"
 viewBox="0.00 0.00 1878.00 692.00" xmlns="http://www.w3.org/2000/svg" xmlns:xlink="http://www.w3.org/1999/xlink">
<g id="graph0" class="graph" transform="scale(1 1) rotate(0) translate(4 688)">
<title>%3</title>
<polygon fill="white" stroke="white" points="-4,5 -4,-688 1875,-688 1875,5 -4,5"/>
<!-- [root] module.container.docker_container.container_id (expand) -->
<g id="node1" class="node"><title>[root] module.container.docker_container.container_id (expand)</title>
<polygon fill="none" stroke="black" points="1060.25,-396 781.75,-396 781.75,-360 1060.25,-360 1060.25,-396"/>
<text text-anchor="middle" x="921" y="-374.3" font-family="Times,serif" font-size="14.00">module.container.docker_container.container_id</text>
</g>
<!-- [root] module.container.var.ext_port (expand) -->
<g id="node16" class="node"><title>[root] module.container.var.ext_port (expand)</title>
<ellipse fill="none" stroke="black" cx="171" cy="-306" rx="171.377" ry="18"/>
<text text-anchor="middle" x="171" y="-302.3" font-family="Times,serif" font-size="14.00">[root] module.container.var.ext_port (expand)</text>
</g>
<!-- [root] module.container.docker_container.container_id (expand)&#45;&gt;[root] module.container.var.ext_port (expand) -->
<g id="edge8" class="edge"><title>[root] module.container.docker_container.container_id (expand)&#45;&gt;[root] module.container.var.ext_port (expand)</title>
<path fill="none" stroke="black" d="M781.688,-363.998C645.34,-351.272 439.081,-332.021 304.694,-319.478"/>
<polygon fill="black" stroke="black" points="304.621,-315.956 294.339,-318.512 303.971,-322.926 304.621,-315.956"/>
</g>
<!-- [root] module.container.var.image (expand) -->
<g id="node17" class="node"><title>[root] module.container.var.image (expand)</title>
<ellipse fill="none" stroke="black" cx="1266" cy="-306" rx="164.153" ry="18"/>
<text text-anchor="middle" x="1266" y="-302.3" font-family="Times,serif" font-size="14.00">[root] module.container.var.image (expand)</text>
</g>
<!-- [root] module.container.docker_container.container_id (expand)&#45;&gt;[root] module.container.var.image (expand) -->
<g id="edge9" class="edge"><title>[root] module.container.docker_container.container_id (expand)&#45;&gt;[root] module.container.var.image (expand)</title>
<path fill="none" stroke="black" d="M1004.96,-359.966C1058.66,-349.07 1128.07,-334.987 1181.81,-324.081"/>
<polygon fill="black" stroke="black" points="1182.56,-327.502 1191.66,-322.084 1181.16,-320.642 1182.56,-327.502"/>
</g>
<!-- [root] module.container.var.int_port (expand) -->
<g id="node18" class="node"><title>[root] module.container.var.int_port (expand)</title>
<ellipse fill="none" stroke="black" cx="570" cy="-306" rx="170.402" ry="18"/>
<text text-anchor="middle" x="570" y="-302.3" font-family="Times,serif" font-size="14.00">[root] module.container.var.int_port (expand)</text>
</g>
<!-- [root] module.container.docker_container.container_id (expand)&#45;&gt;[root] module.container.var.int_port (expand) -->
<g id="edge10" class="edge"><title>[root] module.container.docker_container.container_id (expand)&#45;&gt;[root] module.container.var.int_port (expand)</title>
<path fill="none" stroke="black" d="M835.585,-359.966C781.044,-349.089 710.579,-335.036 655.938,-324.139"/>
<polygon fill="black" stroke="black" points="656.418,-320.666 645.927,-322.142 655.049,-327.53 656.418,-320.666"/>
</g>
<!-- [root] module.container.var.name (expand) -->
<g id="node19" class="node"><title>[root] module.container.var.name (expand)</title>
<ellipse fill="none" stroke="black" cx="921" cy="-306" rx="162.228" ry="18"/>
<text text-anchor="middle" x="921" y="-302.3" font-family="Times,serif" font-size="14.00">[root] module.container.var.name (expand)</text>
</g>
<!-- [root] module.container.docker_container.container_id (expand)&#45;&gt;[root] module.container.var.name (expand) -->
<g id="edge11" class="edge"><title>[root] module.container.docker_container.container_id (expand)&#45;&gt;[root] module.container.var.name (expand)</title>
<path fill="none" stroke="black" d="M921,-359.697C921,-351.983 921,-342.712 921,-334.112"/>
<polygon fill="black" stroke="black" points="924.5,-334.104 921,-324.104 917.5,-334.104 924.5,-334.104"/>
</g>
<!-- [root] module.image.docker_image.image_id (expand) -->
<g id="node2" class="node"><title>[root] module.image.docker_image.image_id (expand)</title>
<polygon fill="none" stroke="black" points="1476.25,-180 1247.75,-180 1247.75,-144 1476.25,-144 1476.25,-180"/>
<text text-anchor="middle" x="1362" y="-158.3" font-family="Times,serif" font-size="14.00">module.image.docker_image.image_id</text>
</g>
<!-- [root] module.image.var.image1 (expand) -->
<g id="node22" class="node"><title>[root] module.image.var.image1 (expand)</title>
<ellipse fill="none" stroke="black" cx="1134" cy="-90" rx="157.404" ry="18"/>
<text text-anchor="middle" x="1134" y="-86.3" font-family="Times,serif" font-size="14.00">[root] module.image.var.image1 (expand)</text>
</g>
<!-- [root] module.image.docker_image.image_id (expand)&#45;&gt;[root] module.image.var.image1 (expand) -->
<g id="edge24" class="edge"><title>[root] module.image.docker_image.image_id (expand)&#45;&gt;[root] module.image.var.image1 (expand)</title>
<path fill="none" stroke="black" d="M1306.52,-143.966C1273.16,-133.726 1230.64,-120.672 1196.16,-110.085"/>
<polygon fill="black" stroke="black" points="1196.79,-106.617 1186.2,-107.028 1194.74,-113.308 1196.79,-106.617"/>
</g>
<!-- [root] provider[&quot;registry.terraform.io/kreuzwerker/docker&quot;] -->
<g id="node5" class="node"><title>[root] provider[&quot;registry.terraform.io/kreuzwerker/docker&quot;]</title>
<polygon fill="none" stroke="black" points="1590,-108 1309.99,-90 1590,-72 1870.01,-90 1590,-108"/>
<text text-anchor="middle" x="1590" y="-86.3" font-family="Times,serif" font-size="14.00">provider[&quot;registry.terraform.io/kreuzwerker/docker&quot;]</text>
</g>
<!-- [root] module.image.docker_image.image_id (expand)&#45;&gt;[root] provider[&quot;registry.terraform.io/kreuzwerker/docker&quot;] -->
<g id="edge25" class="edge"><title>[root] module.image.docker_image.image_id (expand)&#45;&gt;[root] provider[&quot;registry.terraform.io/kreuzwerker/docker&quot;]</title>
<path fill="none" stroke="black" d="M1417.48,-143.966C1452.91,-133.09 1498.67,-119.04 1534.16,-108.143"/>
<polygon fill="black" stroke="black" points="1535.35,-111.44 1543.88,-105.159 1533.3,-104.748 1535.35,-111.44"/>
</g>
<!-- [root] output.ContainerName -->
<g id="node3" class="node"><title>[root] output.ContainerName</title>
<polygon fill="none" stroke="black" points="884.25,-540 749.75,-540 749.75,-504 890.25,-504 890.25,-534 884.25,-540"/>
<polyline fill="none" stroke="black" points="884.25,-540 884.25,-534 "/>
<polyline fill="none" stroke="black" points="890.25,-534 884.25,-534 "/>
<text text-anchor="middle" x="820" y="-518.3" font-family="Times,serif" font-size="14.00">output.ContainerName</text>
</g>
<!-- [root] module.container.output.container_name (expand) -->
<g id="node14" class="node"><title>[root] module.container.output.container_name (expand)</title>
<ellipse fill="none" stroke="black" cx="611" cy="-450" rx="211.322" ry="18"/>
<text text-anchor="middle" x="611" y="-446.3" font-family="Times,serif" font-size="14.00">[root] module.container.output.container_name (expand)</text>
</g>
<!-- [root] output.ContainerName&#45;&gt;[root] module.container.output.container_name (expand) -->
<g id="edge29" class="edge"><title>[root] output.ContainerName&#45;&gt;[root] module.container.output.container_name (expand)</title>
<path fill="none" stroke="black" d="M769.14,-503.966C739.266,-493.96 701.368,-481.267 670.161,-470.815"/>
<polygon fill="black" stroke="black" points="670.877,-467.363 660.283,-467.506 668.654,-474.001 670.877,-467.363"/>
</g>
<!-- [root] output.IPAddress -->
<g id="node4" class="node"><title>[root] output.IPAddress</title>
<polygon fill="none" stroke="black" points="1031.25,-540 928.75,-540 928.75,-504 1037.25,-504 1037.25,-534 1031.25,-540"/>
<polyline fill="none" stroke="black" points="1031.25,-540 1031.25,-534 "/>
<polyline fill="none" stroke="black" points="1037.25,-534 1031.25,-534 "/>
<text text-anchor="middle" x="983" y="-518.3" font-family="Times,serif" font-size="14.00">output.IPAddress</text>
</g>
<!-- [root] module.container.output.ip (expand) -->
<g id="node15" class="node"><title>[root] module.container.output.ip (expand)</title>
<ellipse fill="none" stroke="black" cx="1003" cy="-450" rx="161.254" ry="18"/>
<text text-anchor="middle" x="1003" y="-446.3" font-family="Times,serif" font-size="14.00">[root] module.container.output.ip (expand)</text>
</g>
<!-- [root] output.IPAddress&#45;&gt;[root] module.container.output.ip (expand) -->
<g id="edge30" class="edge"><title>[root] output.IPAddress&#45;&gt;[root] module.container.output.ip (expand)</title>
<path fill="none" stroke="black" d="M987.944,-503.697C990.172,-495.898 992.855,-486.509 995.335,-477.829"/>
<polygon fill="black" stroke="black" points="998.731,-478.681 998.113,-468.104 992,-476.758 998.731,-478.681"/>
</g>
<!-- [root] var.container_name -->
<g id="node6" class="node"><title>[root] var.container_name</title>
<polygon fill="none" stroke="black" points="976.25,-252 859.75,-252 859.75,-216 982.25,-216 982.25,-246 976.25,-252"/>
<polyline fill="none" stroke="black" points="976.25,-252 976.25,-246 "/>
<polyline fill="none" stroke="black" points="982.25,-246 976.25,-246 "/>
<text text-anchor="middle" x="921" y="-230.3" font-family="Times,serif" font-size="14.00">var.container_name</text>
</g>
<!-- [root] var.ext_port -->
<g id="node7" class="node"><title>[root] var.ext_port</title>
<polygon fill="none" stroke="black" points="205,-252 131,-252 131,-216 211,-216 211,-246 205,-252"/>
<polyline fill="none" stroke="black" points="205,-252 205,-246 "/>
<polyline fill="none" stroke="black" points="211,-246 205,-246 "/>
<text text-anchor="middle" x="171" y="-230.3" font-family="Times,serif" font-size="14.00">var.ext_port</text>
</g>
<!-- [root] var.image -->
<g id="node8" class="node"><title>[root] var.image</title>
<polygon fill="none" stroke="black" points="1247.25,-36 1184.75,-36 1184.75,-0 1253.25,-0 1253.25,-30 1247.25,-36"/>
<polyline fill="none" stroke="black" points="1247.25,-36 1247.25,-30 "/>
<polyline fill="none" stroke="black" points="1253.25,-30 1247.25,-30 "/>
<text text-anchor="middle" x="1219" y="-14.3" font-family="Times,serif" font-size="14.00">var.image</text>
</g>
<!-- [root] var.int_port -->
<g id="node9" class="node"><title>[root] var.int_port</title>
<polygon fill="none" stroke="black" points="696.25,-252 623.75,-252 623.75,-216 702.25,-216 702.25,-246 696.25,-252"/>
<polyline fill="none" stroke="black" points="696.25,-252 696.25,-246 "/>
<polyline fill="none" stroke="black" points="702.25,-246 696.25,-246 "/>
<text text-anchor="middle" x="663" y="-230.3" font-family="Times,serif" font-size="14.00">var.int_port</text>
</g>
<!-- [root] meta.count&#45;boundary (EachMode fixup) -->
<g id="node10" class="node"><title>[root] meta.count&#45;boundary (EachMode fixup)</title>
<ellipse fill="none" stroke="black" cx="820" cy="-594" rx="176.202" ry="18"/>
<text text-anchor="middle" x="820" y="-590.3" font-family="Times,serif" font-size="14.00">[root] meta.count&#45;boundary (EachMode fixup)</text>
</g>
<!-- [root] module.container (close) -->
<g id="node11" class="node"><title>[root] module.container (close)</title>
<ellipse fill="none" stroke="black" cx="611" cy="-522" rx="120.334" ry="18"/>
<text text-anchor="middle" x="611" y="-518.3" font-family="Times,serif" font-size="14.00">[root] module.container (close)</text>
</g>
<!-- [root] meta.count&#45;boundary (EachMode fixup)&#45;&gt;[root] module.container (close) -->
<g id="edge1" class="edge"><title>[root] meta.count&#45;boundary (EachMode fixup)&#45;&gt;[root] module.container (close)</title>
<path fill="none" stroke="black" d="M771.263,-576.676C740.218,-566.279 699.887,-552.771 667.452,-541.907"/>
<polygon fill="black" stroke="black" points="668.252,-538.484 657.658,-538.627 666.028,-545.122 668.252,-538.484"/>
</g>
<!-- [root] module.image (close) -->
<g id="node12" class="node"><title>[root] module.image (close)</title>
<ellipse fill="none" stroke="black" cx="1319" cy="-378" rx="109.261" ry="18"/>
<text text-anchor="middle" x="1319" y="-374.3" font-family="Times,serif" font-size="14.00">[root] module.image (close)</text>
</g>
<!-- [root] meta.count&#45;boundary (EachMode fixup)&#45;&gt;[root] module.image (close) -->
<g id="edge2" class="edge"><title>[root] meta.count&#45;boundary (EachMode fixup)&#45;&gt;[root] module.image (close)</title>
<path fill="none" stroke="black" d="M908.152,-578.401C950.676,-569.839 1001.9,-557.258 1046,-540 1106.42,-516.352 1117.07,-500.89 1173,-468 1211.15,-445.567 1254.38,-419.08 1283.83,-400.868"/>
<polygon fill="black" stroke="black" points="1285.85,-403.735 1292.51,-395.495 1282.17,-397.783 1285.85,-403.735"/>
</g>
<!-- [root] meta.count&#45;boundary (EachMode fixup)&#45;&gt;[root] output.ContainerName -->
<g id="edge3" class="edge"><title>[root] meta.count&#45;boundary (EachMode fixup)&#45;&gt;[root] output.ContainerName</title>
<path fill="none" stroke="black" d="M820,-575.697C820,-567.983 820,-558.712 820,-550.112"/>
<polygon fill="black" stroke="black" points="823.5,-550.104 820,-540.104 816.5,-550.104 823.5,-550.104"/>
</g>
<!-- [root] meta.count&#45;boundary (EachMode fixup)&#45;&gt;[root] output.IPAddress -->
<g id="edge4" class="edge"><title>[root] meta.count&#45;boundary (EachMode fixup)&#45;&gt;[root] output.IPAddress</title>
<path fill="none" stroke="black" d="M858.629,-576.411C881.152,-566.739 909.781,-554.444 933.893,-544.089"/>
<polygon fill="black" stroke="black" points="935.424,-547.24 943.232,-540.078 932.662,-540.809 935.424,-547.24"/>
</g>
<!-- [root] module.container.local.name (expand) -->
<g id="node13" class="node"><title>[root] module.container.local.name (expand)</title>
<ellipse fill="none" stroke="black" cx="371" cy="-378" rx="168.478" ry="18"/>
<text text-anchor="middle" x="371" y="-374.3" font-family="Times,serif" font-size="14.00">[root] module.container.local.name (expand)</text>
</g>
<!-- [root] module.container (close)&#45;&gt;[root] module.container.local.name (expand) -->
<g id="edge5" class="edge"><title>[root] module.container (close)&#45;&gt;[root] module.container.local.name (expand)</title>
<path fill="none" stroke="black" d="M523.194,-509.643C469.934,-500.965 408.733,-487.208 390,-468 374.27,-451.871 370.169,-426.097 369.622,-406.427"/>
<polygon fill="black" stroke="black" points="373.122,-406.231 369.632,-396.227 366.122,-406.224 373.122,-406.231"/>
</g>
<!-- [root] module.container (close)&#45;&gt;[root] module.container.output.container_name (expand) -->
<g id="edge6" class="edge"><title>[root] module.container (close)&#45;&gt;[root] module.container.output.container_name (expand)</title>
<path fill="none" stroke="black" d="M611,-503.697C611,-495.983 611,-486.712 611,-478.112"/>
<polygon fill="black" stroke="black" points="614.5,-478.104 611,-468.104 607.5,-478.104 614.5,-478.104"/>
</g>
<!-- [root] module.container (close)&#45;&gt;[root] module.container.output.ip (expand) -->
<g id="edge7" class="edge"><title>[root] module.container (close)&#45;&gt;[root] module.container.output.ip (expand)</title>
<path fill="none" stroke="black" d="M685.193,-507.751C749.401,-496.286 842.503,-479.66 911.354,-467.365"/>
<polygon fill="black" stroke="black" points="912.101,-470.788 921.33,-465.584 910.87,-463.897 912.101,-470.788"/>
</g>
<!-- [root] module.image.output.image_out (expand) -->
<g id="node21" class="node"><title>[root] module.image.output.image_out (expand)</title>
<ellipse fill="none" stroke="black" cx="1362" cy="-234" rx="181.001" ry="18"/>
<text text-anchor="middle" x="1362" y="-230.3" font-family="Times,serif" font-size="14.00">[root] module.image.output.image_out (expand)</text>
</g>
<!-- [root] module.image (close)&#45;&gt;[root] module.image.output.image_out (expand) -->
<g id="edge23" class="edge"><title>[root] module.image (close)&#45;&gt;[root] module.image.output.image_out (expand)</title>
<path fill="none" stroke="black" d="M1383.89,-363.436C1405.12,-355.588 1426.44,-343.273 1439,-324 1447.73,-310.594 1446.44,-302.162 1439,-288 1432.32,-275.285 1421.05,-265.026 1409.17,-257.046"/>
<polygon fill="black" stroke="black" points="1410.8,-253.942 1400.46,-251.635 1407.11,-259.887 1410.8,-253.942"/>
</g>
<!-- [root] module.container (expand) -->
<g id="node20" class="node"><title>[root] module.container (expand)</title>
<ellipse fill="none" stroke="black" cx="477" cy="-234" rx="128.058" ry="18"/>
<text text-anchor="middle" x="477" y="-230.3" font-family="Times,serif" font-size="14.00">[root] module.container (expand)</text>
</g>
<!-- [root] module.container.local.name (expand)&#45;&gt;[root] module.container (expand) -->
<g id="edge12" class="edge"><title>[root] module.container.local.name (expand)&#45;&gt;[root] module.container (expand)</title>
<path fill="none" stroke="black" d="M370.767,-359.666C371.341,-340.463 374.825,-309.392 390,-288 399.401,-274.747 413.26,-264.18 427.166,-256.078"/>
<polygon fill="black" stroke="black" points="429.168,-258.973 436.265,-251.107 425.811,-252.83 429.168,-258.973"/>
</g>
<!-- [root] module.container.output.container_name (expand)&#45;&gt;[root] module.container.docker_container.container_id (expand) -->
<g id="edge13" class="edge"><title>[root] module.container.output.container_name (expand)&#45;&gt;[root] module.container.docker_container.container_id (expand)</title>
<path fill="none" stroke="black" d="M681.732,-433.028C727.539,-422.685 787.454,-409.155 835.868,-398.223"/>
<polygon fill="black" stroke="black" points="836.719,-401.619 845.703,-396.003 835.177,-394.791 836.719,-401.619"/>
</g>
<!-- [root] module.container.output.ip (expand)&#45;&gt;[root] module.container.docker_container.container_id (expand) -->
<g id="edge14" class="edge"><title>[root] module.container.output.ip (expand)&#45;&gt;[root] module.container.docker_container.container_id (expand)</title>
<path fill="none" stroke="black" d="M983.15,-432.055C972.852,-423.264 960.102,-412.38 948.836,-402.763"/>
<polygon fill="black" stroke="black" points="950.829,-399.862 940.951,-396.032 946.285,-405.186 950.829,-399.862"/>
</g>
<!-- [root] module.container.var.ext_port (expand)&#45;&gt;[root] module.container (expand) -->
<g id="edge15" class="edge"><title>[root] module.container.var.ext_port (expand)&#45;&gt;[root] module.container (expand)</title>
<path fill="none" stroke="black" d="M238.911,-289.465C287.607,-278.325 353.164,-263.329 403.158,-251.892"/>
<polygon fill="black" stroke="black" points="403.972,-255.296 412.94,-249.654 402.411,-248.472 403.972,-255.296"/>
</g>
<!-- [root] module.container.var.ext_port (expand)&#45;&gt;[root] var.ext_port -->
<g id="edge16" class="edge"><title>[root] module.container.var.ext_port (expand)&#45;&gt;[root] var.ext_port</title>
<path fill="none" stroke="black" d="M171,-287.697C171,-279.983 171,-270.712 171,-262.112"/>
<polygon fill="black" stroke="black" points="174.5,-262.104 171,-252.104 167.5,-262.104 174.5,-262.104"/>
</g>
<!-- [root] module.container.var.image (expand)&#45;&gt;[root] module.container (expand) -->
<g id="edge17" class="edge"><title>[root] module.container.var.image (expand)&#45;&gt;[root] module.container (expand)</title>
<path fill="none" stroke="black" d="M1149.51,-293.258C1130.3,-291.425 1110.6,-289.609 1092,-288 879.746,-269.641 825.996,-273.124 614,-252 602.169,-250.821 589.778,-249.461 577.489,-248.033"/>
<polygon fill="black" stroke="black" points="577.546,-244.516 567.205,-246.821 576.727,-251.468 577.546,-244.516"/>
</g>
<!-- [root] module.container.var.image (expand)&#45;&gt;[root] module.image.output.image_out (expand) -->
<g id="edge18" class="edge"><title>[root] module.container.var.image (expand)&#45;&gt;[root] module.image.output.image_out (expand)</title>
<path fill="none" stroke="black" d="M1289.24,-288.055C1301.65,-279.008 1317.09,-267.744 1330.56,-257.926"/>
<polygon fill="black" stroke="black" points="1332.62,-260.751 1338.64,-252.032 1328.5,-255.095 1332.62,-260.751"/>
</g>
<!-- [root] module.container.var.int_port (expand)&#45;&gt;[root] module.container (expand) -->
<g id="edge19" class="edge"><title>[root] module.container.var.int_port (expand)&#45;&gt;[root] module.container (expand)</title>
<path fill="none" stroke="black" d="M547.487,-288.055C535.493,-279.027 520.566,-267.792 507.54,-257.987"/>
<polygon fill="black" stroke="black" points="509.4,-255.006 499.305,-251.789 505.19,-260.599 509.4,-255.006"/>
</g>
<!-- [root] module.container.var.int_port (expand)&#45;&gt;[root] var.int_port -->
<g id="edge20" class="edge"><title>[root] module.container.var.int_port (expand)&#45;&gt;[root] var.int_port</title>
<path fill="none" stroke="black" d="M592.513,-288.055C604.419,-279.093 619.215,-267.957 632.172,-258.204"/>
<polygon fill="black" stroke="black" points="634.487,-260.842 640.372,-252.032 630.278,-255.249 634.487,-260.842"/>
</g>
<!-- [root] module.container.var.name (expand)&#45;&gt;[root] module.container (expand) -->
<g id="edge21" class="edge"><title>[root] module.container.var.name (expand)&#45;&gt;[root] module.container (expand)</title>
<path fill="none" stroke="black" d="M831.684,-290.919C755.343,-278.883 645.938,-261.634 568.871,-249.484"/>
<polygon fill="black" stroke="black" points="569.115,-245.979 558.692,-247.879 568.025,-252.894 569.115,-245.979"/>
</g>
<!-- [root] module.container.var.name (expand)&#45;&gt;[root] var.container_name -->
<g id="edge22" class="edge"><title>[root] module.container.var.name (expand)&#45;&gt;[root] var.container_name</title>
<path fill="none" stroke="black" d="M921,-287.697C921,-279.983 921,-270.712 921,-262.112"/>
<polygon fill="black" stroke="black" points="924.5,-262.104 921,-252.104 917.5,-262.104 924.5,-262.104"/>
</g>
<!-- [root] module.image.output.image_out (expand)&#45;&gt;[root] module.image.docker_image.image_id (expand) -->
<g id="edge26" class="edge"><title>[root] module.image.output.image_out (expand)&#45;&gt;[root] module.image.docker_image.image_id (expand)</title>
<path fill="none" stroke="black" d="M1362,-215.697C1362,-207.983 1362,-198.712 1362,-190.112"/>
<polygon fill="black" stroke="black" points="1365.5,-190.104 1362,-180.104 1358.5,-190.104 1365.5,-190.104"/>
</g>
<!-- [root] module.image (expand) -->
<g id="node23" class="node"><title>[root] module.image (expand)</title>
<ellipse fill="none" stroke="black" cx="1050" cy="-18" rx="116.484" ry="18"/>
<text text-anchor="middle" x="1050" y="-14.3" font-family="Times,serif" font-size="14.00">[root] module.image (expand)</text>
</g>
<!-- [root] module.image.var.image1 (expand)&#45;&gt;[root] module.image (expand) -->
<g id="edge27" class="edge"><title>[root] module.image.var.image1 (expand)&#45;&gt;[root] module.image (expand)</title>
<path fill="none" stroke="black" d="M1113.67,-72.055C1102.94,-63.1128 1089.61,-52.0054 1077.92,-42.268"/>
<polygon fill="black" stroke="black" points="1080.07,-39.5021 1070.15,-35.789 1075.59,-44.8797 1080.07,-39.5021"/>
</g>
<!-- [root] module.image.var.image1 (expand)&#45;&gt;[root] var.image -->
<g id="edge28" class="edge"><title>[root] module.image.var.image1 (expand)&#45;&gt;[root] var.image</title>
<path fill="none" stroke="black" d="M1154.58,-72.055C1165.35,-63.1785 1178.72,-52.1686 1190.48,-42.483"/>
<polygon fill="black" stroke="black" points="1192.82,-45.0905 1198.32,-36.0316 1188.37,-39.687 1192.82,-45.0905"/>
</g>
<!-- [root] provider[&quot;registry.terraform.io/kreuzwerker/docker&quot;] (close) -->
<g id="node24" class="node"><title>[root] provider[&quot;registry.terraform.io/kreuzwerker/docker&quot;] (close)</title>
<ellipse fill="none" stroke="black" cx="1260" cy="-594" rx="245.992" ry="18"/>
<text text-anchor="middle" x="1260" y="-590.3" font-family="Times,serif" font-size="14.00">[root] provider[&quot;registry.terraform.io/kreuzwerker/docker&quot;] (close)</text>
</g>
<!-- [root] provider[&quot;registry.terraform.io/kreuzwerker/docker&quot;] (close)&#45;&gt;[root] module.container.docker_container.container_id (expand) -->
<g id="edge31" class="edge"><title>[root] provider[&quot;registry.terraform.io/kreuzwerker/docker&quot;] (close)&#45;&gt;[root] module.container.docker_container.container_id (expand)</title>
<path fill="none" stroke="black" d="M1255.92,-575.99C1247.01,-542.699 1222.52,-468.97 1173,-432 1154.11,-417.893 1108,-406.414 1060.31,-397.791"/>
<polygon fill="black" stroke="black" points="1060.9,-394.34 1050.44,-396.049 1059.68,-401.234 1060.9,-394.34"/>
</g>
<!-- [root] root -->
<g id="node25" class="node"><title>[root] root</title>
<ellipse fill="none" stroke="black" cx="1040" cy="-666" rx="47.169" ry="18"/>
<text text-anchor="middle" x="1040" y="-662.3" font-family="Times,serif" font-size="14.00">[root] root</text>
</g>
<!-- [root] root&#45;&gt;[root] meta.count&#45;boundary (EachMode fixup) -->
<g id="edge32" class="edge"><title>[root] root&#45;&gt;[root] meta.count&#45;boundary (EachMode fixup)</title>
<path fill="none" stroke="black" d="M1004.65,-653.753C971.327,-643.149 920.69,-627.038 880.867,-614.367"/>
<polygon fill="black" stroke="black" points="881.843,-611.005 871.253,-611.308 879.721,-617.675 881.843,-611.005"/>
</g>
<!-- [root] root&#45;&gt;[root] provider[&quot;registry.terraform.io/kreuzwerker/docker&quot;] (close) -->
<g id="edge33" class="edge"><title>[root] root&#45;&gt;[root] provider[&quot;registry.terraform.io/kreuzwerker/docker&quot;] (close)</title>
<path fill="none" stroke="black" d="M1075.35,-653.753C1108.34,-643.256 1158.29,-627.363 1197.92,-614.752"/>
<polygon fill="black" stroke="black" points="1199.03,-618.072 1207.5,-611.704 1196.91,-611.401 1199.03,-618.072"/>
</g>
</g>
</svg>
