<?xml version="1.0" encoding="UTF-8" standalone="no"?>
<!DOCTYPE svg PUBLIC "-//W3C//DTD SVG 1.1//EN"
 "http://www.w3.org/Graphics/SVG/1.1/DTD/svg11.dtd">
<!-- Generated by graphviz version 2.30.1 (20180828.1746)
 -->
<!-- Title: %3 Pages: 1 -->
<svg width="1824pt" height="692pt"
 viewBox="0.00 0.00 1824.00 692.00" xmlns="http://www.w3.org/2000/svg" xmlns:xlink="http://www.w3.org/1999/xlink">
<g id="graph0" class="graph" transform="scale(1 1) rotate(0) translate(4 688)">
<title>%3</title>
<polygon fill="white" stroke="white" points="-4,5 -4,-688 1821,-688 1821,5 -4,5"/>
<!-- [root] module.container.docker_container.container_id (expand) -->
<g id="node1" class="node"><title>[root] module.container.docker_container.container_id (expand)</title>
<polygon fill="none" stroke="black" points="1117.25,-396 838.75,-396 838.75,-360 1117.25,-360 1117.25,-396"/>
<text text-anchor="middle" x="978" y="-374.3" font-family="Times,serif" font-size="14.00">module.container.docker_container.container_id</text>
</g>
<!-- [root] module.container.var.ext_port (expand) -->
<g id="node16" class="node"><title>[root] module.container.var.ext_port (expand)</title>
<ellipse fill="none" stroke="black" cx="1302" cy="-306" rx="171.377" ry="18"/>
<text text-anchor="middle" x="1302" y="-302.3" font-family="Times,serif" font-size="14.00">[root] module.container.var.ext_port (expand)</text>
</g>
<!-- [root] module.container.docker_container.container_id (expand)&#45;&gt;[root] module.container.var.ext_port (expand) -->
<g id="edge7" class="edge"><title>[root] module.container.docker_container.container_id (expand)&#45;&gt;[root] module.container.var.ext_port (expand)</title>
<path fill="none" stroke="black" d="M1056.85,-359.966C1106.63,-349.21 1170.79,-335.348 1220.98,-324.503"/>
<polygon fill="black" stroke="black" points="1221.79,-327.91 1230.83,-322.377 1220.31,-321.067 1221.79,-327.91"/>
</g>
<!-- [root] module.container.var.image (expand) -->
<g id="node17" class="node"><title>[root] module.container.var.image (expand)</title>
<ellipse fill="none" stroke="black" cx="588" cy="-306" rx="164.153" ry="18"/>
<text text-anchor="middle" x="588" y="-302.3" font-family="Times,serif" font-size="14.00">[root] module.container.var.image (expand)</text>
</g>
<!-- [root] module.container.docker_container.container_id (expand)&#45;&gt;[root] module.container.var.image (expand) -->
<g id="edge8" class="edge"><title>[root] module.container.docker_container.container_id (expand)&#45;&gt;[root] module.container.var.image (expand)</title>
<path fill="none" stroke="black" d="M883.094,-359.966C821.262,-348.868 741.01,-334.463 679.807,-323.478"/>
<polygon fill="black" stroke="black" points="680.23,-319.998 669.769,-321.677 678.994,-326.888 680.23,-319.998"/>
</g>
<!-- [root] module.container.var.int_port (expand) -->
<g id="node18" class="node"><title>[root] module.container.var.int_port (expand)</title>
<ellipse fill="none" stroke="black" cx="941" cy="-306" rx="170.402" ry="18"/>
<text text-anchor="middle" x="941" y="-302.3" font-family="Times,serif" font-size="14.00">[root] module.container.var.int_port (expand)</text>
</g>
<!-- [root] module.container.docker_container.container_id (expand)&#45;&gt;[root] module.container.var.int_port (expand) -->
<g id="edge9" class="edge"><title>[root] module.container.docker_container.container_id (expand)&#45;&gt;[root] module.container.var.int_port (expand)</title>
<path fill="none" stroke="black" d="M968.854,-359.697C964.597,-351.644 959.444,-341.894 954.734,-332.982"/>
<polygon fill="black" stroke="black" points="957.808,-331.31 950.041,-324.104 951.62,-334.581 957.808,-331.31"/>
</g>
<!-- [root] module.container.var.name (expand) -->
<g id="node19" class="node"><title>[root] module.container.var.name (expand)</title>
<ellipse fill="none" stroke="black" cx="1654" cy="-306" rx="162.228" ry="18"/>
<text text-anchor="middle" x="1654" y="-302.3" font-family="Times,serif" font-size="14.00">[root] module.container.var.name (expand)</text>
</g>
<!-- [root] module.container.docker_container.container_id (expand)&#45;&gt;[root] module.container.var.name (expand) -->
<g id="edge10" class="edge"><title>[root] module.container.docker_container.container_id (expand)&#45;&gt;[root] module.container.var.name (expand)</title>
<path fill="none" stroke="black" d="M1117.66,-362.538C1239,-349.974 1413.11,-331.944 1529.71,-319.871"/>
<polygon fill="black" stroke="black" points="1530.17,-323.342 1539.75,-318.83 1529.44,-316.379 1530.17,-323.342"/>
</g>
<!-- [root] module.image.docker_image.image_id (expand) -->
<g id="node2" class="node"><title>[root] module.image.docker_image.image_id (expand)</title>
<polygon fill="none" stroke="black" points="606.25,-180 377.75,-180 377.75,-144 606.25,-144 606.25,-180"/>
<text text-anchor="middle" x="492" y="-158.3" font-family="Times,serif" font-size="14.00">module.image.docker_image.image_id</text>
</g>
<!-- [root] module.image.var.image (expand) -->
<g id="node22" class="node"><title>[root] module.image.var.image (expand)</title>
<ellipse fill="none" stroke="black" cx="200" cy="-90" rx="153.08" ry="18"/>
<text text-anchor="middle" x="200" y="-86.3" font-family="Times,serif" font-size="14.00">[root] module.image.var.image (expand)</text>
</g>
<!-- [root] module.image.docker_image.image_id (expand)&#45;&gt;[root] module.image.var.image (expand) -->
<g id="edge25" class="edge"><title>[root] module.image.docker_image.image_id (expand)&#45;&gt;[root] module.image.var.image (expand)</title>
<path fill="none" stroke="black" d="M420.942,-143.966C376.527,-133.318 319.416,-119.627 274.387,-108.832"/>
<polygon fill="black" stroke="black" points="274.928,-105.363 264.388,-106.435 273.296,-112.17 274.928,-105.363"/>
</g>
<!-- [root] provider[&quot;registry.terraform.io/kreuzwerker/docker&quot;] -->
<g id="node5" class="node"><title>[root] provider[&quot;registry.terraform.io/kreuzwerker/docker&quot;]</title>
<polygon fill="none" stroke="black" points="652,-108 371.985,-90 652,-72 932.015,-90 652,-108"/>
<text text-anchor="middle" x="652" y="-86.3" font-family="Times,serif" font-size="14.00">provider[&quot;registry.terraform.io/kreuzwerker/docker&quot;]</text>
</g>
<!-- [root] module.image.docker_image.image_id (expand)&#45;&gt;[root] provider[&quot;registry.terraform.io/kreuzwerker/docker&quot;] -->
<g id="edge26" class="edge"><title>[root] module.image.docker_image.image_id (expand)&#45;&gt;[root] provider[&quot;registry.terraform.io/kreuzwerker/docker&quot;]</title>
<path fill="none" stroke="black" d="M531.14,-143.876C554.581,-133.621 584.418,-120.567 608.582,-109.996"/>
<polygon fill="black" stroke="black" points="610.117,-113.144 617.876,-105.929 607.312,-106.731 610.117,-113.144"/>
</g>
<!-- [root] output.ContainerName -->
<g id="node3" class="node"><title>[root] output.ContainerName</title>
<polygon fill="none" stroke="black" points="1046.25,-540 911.75,-540 911.75,-504 1052.25,-504 1052.25,-534 1046.25,-540"/>
<polyline fill="none" stroke="black" points="1046.25,-540 1046.25,-534 "/>
<polyline fill="none" stroke="black" points="1052.25,-534 1046.25,-534 "/>
<text text-anchor="middle" x="982" y="-518.3" font-family="Times,serif" font-size="14.00">output.ContainerName</text>
</g>
<!-- [root] module.container.output.container_name (expand) -->
<g id="node14" class="node"><title>[root] module.container.output.container_name (expand)</title>
<ellipse fill="none" stroke="black" cx="978" cy="-450" rx="211.322" ry="18"/>
<text text-anchor="middle" x="978" y="-446.3" font-family="Times,serif" font-size="14.00">[root] module.container.output.container_name (expand)</text>
</g>
<!-- [root] output.ContainerName&#45;&gt;[root] module.container.output.container_name (expand) -->
<g id="edge31" class="edge"><title>[root] output.ContainerName&#45;&gt;[root] module.container.output.container_name (expand)</title>
<path fill="none" stroke="black" d="M981.011,-503.697C980.57,-495.983 980.041,-486.712 979.549,-478.112"/>
<polygon fill="black" stroke="black" points="983.042,-477.888 978.977,-468.104 976.054,-478.288 983.042,-477.888"/>
</g>
<!-- [root] output.IPAddress -->
<g id="node4" class="node"><title>[root] output.IPAddress</title>
<polygon fill="none" stroke="black" points="628.25,-540 525.75,-540 525.75,-504 634.25,-504 634.25,-534 628.25,-540"/>
<polyline fill="none" stroke="black" points="628.25,-540 628.25,-534 "/>
<polyline fill="none" stroke="black" points="634.25,-534 628.25,-534 "/>
<text text-anchor="middle" x="580" y="-518.3" font-family="Times,serif" font-size="14.00">output.IPAddress</text>
</g>
<!-- [root] module.container.output.ip (expand) -->
<g id="node15" class="node"><title>[root] module.container.output.ip (expand)</title>
<ellipse fill="none" stroke="black" cx="586" cy="-450" rx="161.254" ry="18"/>
<text text-anchor="middle" x="586" y="-446.3" font-family="Times,serif" font-size="14.00">[root] module.container.output.ip (expand)</text>
</g>
<!-- [root] output.IPAddress&#45;&gt;[root] module.container.output.ip (expand) -->
<g id="edge32" class="edge"><title>[root] output.IPAddress&#45;&gt;[root] module.container.output.ip (expand)</title>
<path fill="none" stroke="black" d="M581.483,-503.697C582.144,-495.983 582.939,-486.712 583.676,-478.112"/>
<polygon fill="black" stroke="black" points="587.167,-478.367 584.534,-468.104 580.193,-477.769 587.167,-478.367"/>
</g>
<!-- [root] var.container_name -->
<g id="node6" class="node"><title>[root] var.container_name</title>
<polygon fill="none" stroke="black" points="1709.25,-252 1592.75,-252 1592.75,-216 1715.25,-216 1715.25,-246 1709.25,-252"/>
<polyline fill="none" stroke="black" points="1709.25,-252 1709.25,-246 "/>
<polyline fill="none" stroke="black" points="1715.25,-246 1709.25,-246 "/>
<text text-anchor="middle" x="1654" y="-230.3" font-family="Times,serif" font-size="14.00">var.container_name</text>
</g>
<!-- [root] var.env -->
<g id="node7" class="node"><title>[root] var.env</title>
<polygon fill="none" stroke="black" points="1186.25,-36 1137.75,-36 1137.75,-0 1192.25,-0 1192.25,-30 1186.25,-36"/>
<polyline fill="none" stroke="black" points="1186.25,-36 1186.25,-30 "/>
<polyline fill="none" stroke="black" points="1192.25,-30 1186.25,-30 "/>
<text text-anchor="middle" x="1165" y="-14.3" font-family="Times,serif" font-size="14.00">var.env</text>
</g>
<!-- [root] var.ext_port -->
<g id="node8" class="node"><title>[root] var.ext_port</title>
<polygon fill="none" stroke="black" points="1336,-252 1262,-252 1262,-216 1342,-216 1342,-246 1336,-252"/>
<polyline fill="none" stroke="black" points="1336,-252 1336,-246 "/>
<polyline fill="none" stroke="black" points="1342,-246 1336,-246 "/>
<text text-anchor="middle" x="1302" y="-230.3" font-family="Times,serif" font-size="14.00">var.ext_port</text>
</g>
<!-- [root] var.image -->
<g id="node9" class="node"><title>[root] var.image</title>
<polygon fill="none" stroke="black" points="313.25,-36 250.75,-36 250.75,-0 319.25,-0 319.25,-30 313.25,-36"/>
<polyline fill="none" stroke="black" points="313.25,-36 313.25,-30 "/>
<polyline fill="none" stroke="black" points="319.25,-30 313.25,-30 "/>
<text text-anchor="middle" x="285" y="-14.3" font-family="Times,serif" font-size="14.00">var.image</text>
</g>
<!-- [root] var.int_port -->
<g id="node10" class="node"><title>[root] var.int_port</title>
<polygon fill="none" stroke="black" points="925.25,-252 852.75,-252 852.75,-216 931.25,-216 931.25,-246 925.25,-252"/>
<polyline fill="none" stroke="black" points="925.25,-252 925.25,-246 "/>
<polyline fill="none" stroke="black" points="931.25,-246 925.25,-246 "/>
<text text-anchor="middle" x="892" y="-230.3" font-family="Times,serif" font-size="14.00">var.int_port</text>
</g>
<!-- [root] meta.count&#45;boundary (EachMode fixup) -->
<g id="node11" class="node"><title>[root] meta.count&#45;boundary (EachMode fixup)</title>
<ellipse fill="none" stroke="black" cx="773" cy="-594" rx="176.202" ry="18"/>
<text text-anchor="middle" x="773" y="-590.3" font-family="Times,serif" font-size="14.00">[root] meta.count&#45;boundary (EachMode fixup)</text>
</g>
<!-- [root] module.container (close) -->
<g id="node12" class="node"><title>[root] module.container (close)</title>
<ellipse fill="none" stroke="black" cx="773" cy="-522" rx="120.334" ry="18"/>
<text text-anchor="middle" x="773" y="-518.3" font-family="Times,serif" font-size="14.00">[root] module.container (close)</text>
</g>
<!-- [root] meta.count&#45;boundary (EachMode fixup)&#45;&gt;[root] module.container (close) -->
<g id="edge1" class="edge"><title>[root] meta.count&#45;boundary (EachMode fixup)&#45;&gt;[root] module.container (close)</title>
<path fill="none" stroke="black" d="M773,-575.697C773,-567.983 773,-558.712 773,-550.112"/>
<polygon fill="black" stroke="black" points="776.5,-550.104 773,-540.104 769.5,-550.104 776.5,-550.104"/>
</g>
<!-- [root] module.image (close) -->
<g id="node13" class="node"><title>[root] module.image (close)</title>
<ellipse fill="none" stroke="black" cx="396" cy="-378" rx="109.261" ry="18"/>
<text text-anchor="middle" x="396" y="-374.3" font-family="Times,serif" font-size="14.00">[root] module.image (close)</text>
</g>
<!-- [root] meta.count&#45;boundary (EachMode fixup)&#45;&gt;[root] module.image (close) -->
<g id="edge2" class="edge"><title>[root] meta.count&#45;boundary (EachMode fixup)&#45;&gt;[root] module.image (close)</title>
<path fill="none" stroke="black" d="M660.165,-580.12C614.129,-572.237 561.202,-559.718 516,-540 465.471,-517.958 445.253,-514.085 415,-468 402.968,-449.672 398.398,-425.063 396.735,-406.368"/>
<polygon fill="black" stroke="black" points="400.21,-405.883 396.057,-396.136 393.226,-406.346 400.21,-405.883"/>
</g>
<!-- [root] meta.count&#45;boundary (EachMode fixup)&#45;&gt;[root] output.ContainerName -->
<g id="edge3" class="edge"><title>[root] meta.count&#45;boundary (EachMode fixup)&#45;&gt;[root] output.ContainerName</title>
<path fill="none" stroke="black" d="M821.737,-576.676C851.47,-566.718 889.721,-553.907 921.396,-543.298"/>
<polygon fill="black" stroke="black" points="922.627,-546.577 930.998,-540.082 920.404,-539.939 922.627,-546.577"/>
</g>
<!-- [root] meta.count&#45;boundary (EachMode fixup)&#45;&gt;[root] output.IPAddress -->
<g id="edge4" class="edge"><title>[root] meta.count&#45;boundary (EachMode fixup)&#45;&gt;[root] output.IPAddress</title>
<path fill="none" stroke="black" d="M727.75,-576.588C700.523,-566.713 665.627,-554.057 636.586,-543.524"/>
<polygon fill="black" stroke="black" points="637.576,-540.159 626.982,-540.04 635.189,-546.74 637.576,-540.159"/>
</g>
<!-- [root] module.container (close)&#45;&gt;[root] module.container.output.container_name (expand) -->
<g id="edge5" class="edge"><title>[root] module.container (close)&#45;&gt;[root] module.container.output.container_name (expand)</title>
<path fill="none" stroke="black" d="M819.006,-505.291C848.747,-495.135 887.716,-481.829 919.63,-470.931"/>
<polygon fill="black" stroke="black" points="920.957,-474.176 929.29,-467.633 918.695,-467.552 920.957,-474.176"/>
</g>
<!-- [root] module.container (close)&#45;&gt;[root] module.container.output.ip (expand) -->
<g id="edge6" class="edge"><title>[root] module.container (close)&#45;&gt;[root] module.container.output.ip (expand)</title>
<path fill="none" stroke="black" d="M730.567,-505.116C703.555,-495.005 668.342,-481.823 639.431,-471.001"/>
<polygon fill="black" stroke="black" points="640.482,-467.657 629.889,-467.429 638.028,-474.213 640.482,-467.657"/>
</g>
<!-- [root] module.image.output.image_out (expand) -->
<g id="node21" class="node"><title>[root] module.image.output.image_out (expand)</title>
<ellipse fill="none" stroke="black" cx="492" cy="-234" rx="181.001" ry="18"/>
<text text-anchor="middle" x="492" y="-230.3" font-family="Times,serif" font-size="14.00">[root] module.image.output.image_out (expand)</text>
</g>
<!-- [root] module.image (close)&#45;&gt;[root] module.image.output.image_out (expand) -->
<g id="edge24" class="edge"><title>[root] module.image (close)&#45;&gt;[root] module.image.output.image_out (expand)</title>
<path fill="none" stroke="black" d="M395.99,-359.82C396.764,-340.754 400.427,-309.806 415,-288 423.2,-275.731 435.289,-265.491 447.47,-257.387"/>
<polygon fill="black" stroke="black" points="449.678,-260.134 456.302,-251.865 445.967,-254.199 449.678,-260.134"/>
</g>
<!-- [root] module.container.output.container_name (expand)&#45;&gt;[root] module.container.docker_container.container_id (expand) -->
<g id="edge11" class="edge"><title>[root] module.container.output.container_name (expand)&#45;&gt;[root] module.container.docker_container.container_id (expand)</title>
<path fill="none" stroke="black" d="M978,-431.697C978,-423.983 978,-414.712 978,-406.112"/>
<polygon fill="black" stroke="black" points="981.5,-406.104 978,-396.104 974.5,-406.104 981.5,-406.104"/>
</g>
<!-- [root] module.container.output.ip (expand)&#45;&gt;[root] module.container.docker_container.container_id (expand) -->
<g id="edge12" class="edge"><title>[root] module.container.output.ip (expand)&#45;&gt;[root] module.container.docker_container.container_id (expand)</title>
<path fill="none" stroke="black" d="M667.699,-434.411C727.123,-423.8 808.093,-409.341 872.421,-397.853"/>
<polygon fill="black" stroke="black" points="873.368,-401.24 882.597,-396.036 872.137,-394.349 873.368,-401.24"/>
</g>
<!-- [root] module.container (expand) -->
<g id="node20" class="node"><title>[root] module.container (expand)</title>
<ellipse fill="none" stroke="black" cx="1116" cy="-234" rx="128.058" ry="18"/>
<text text-anchor="middle" x="1116" y="-230.3" font-family="Times,serif" font-size="14.00">[root] module.container (expand)</text>
</g>
<!-- [root] module.container.var.ext_port (expand)&#45;&gt;[root] module.container (expand) -->
<g id="edge13" class="edge"><title>[root] module.container.var.ext_port (expand)&#45;&gt;[root] module.container (expand)</title>
<path fill="none" stroke="black" d="M1258.39,-288.588C1231.38,-278.422 1196.54,-265.31 1168.08,-254.6"/>
<polygon fill="black" stroke="black" points="1169.29,-251.314 1158.69,-251.068 1166.82,-257.866 1169.29,-251.314"/>
</g>
<!-- [root] module.container.var.ext_port (expand)&#45;&gt;[root] var.env -->
<g id="edge14" class="edge"><title>[root] module.container.var.ext_port (expand)&#45;&gt;[root] var.env</title>
<path fill="none" stroke="black" d="M1323.9,-288.108C1334.22,-278.732 1345.47,-266.12 1351,-252 1356.83,-237.101 1356.91,-230.868 1351,-216 1320.4,-139.005 1243.85,-74.6975 1199.07,-42.0707"/>
<polygon fill="black" stroke="black" points="1200.99,-39.1446 1190.83,-36.1622 1196.92,-44.8335 1200.99,-39.1446"/>
</g>
<!-- [root] module.container.var.ext_port (expand)&#45;&gt;[root] var.ext_port -->
<g id="edge15" class="edge"><title>[root] module.container.var.ext_port (expand)&#45;&gt;[root] var.ext_port</title>
<path fill="none" stroke="black" d="M1302,-287.697C1302,-279.983 1302,-270.712 1302,-262.112"/>
<polygon fill="black" stroke="black" points="1305.5,-262.104 1302,-252.104 1298.5,-262.104 1305.5,-262.104"/>
</g>
<!-- [root] module.container.var.image (expand)&#45;&gt;[root] module.container (expand) -->
<g id="edge16" class="edge"><title>[root] module.container.var.image (expand)&#45;&gt;[root] module.container (expand)</title>
<path fill="none" stroke="black" d="M688.244,-291.71C782.32,-279.238 922.245,-260.687 1016.18,-248.233"/>
<polygon fill="black" stroke="black" points="1016.81,-251.681 1026.26,-246.897 1015.89,-244.742 1016.81,-251.681"/>
</g>
<!-- [root] module.container.var.image (expand)&#45;&gt;[root] module.image.output.image_out (expand) -->
<g id="edge17" class="edge"><title>[root] module.container.var.image (expand)&#45;&gt;[root] module.image.output.image_out (expand)</title>
<path fill="none" stroke="black" d="M564.761,-288.055C552.354,-279.008 536.907,-267.744 523.441,-257.926"/>
<polygon fill="black" stroke="black" points="525.5,-255.095 515.358,-252.032 521.376,-260.751 525.5,-255.095"/>
</g>
<!-- [root] module.container.var.int_port (expand)&#45;&gt;[root] module.container (expand) -->
<g id="edge18" class="edge"><title>[root] module.container.var.int_port (expand)&#45;&gt;[root] module.container (expand)</title>
<path fill="none" stroke="black" d="M982.473,-288.411C1007.59,-278.365 1039.78,-265.49 1066.26,-254.898"/>
<polygon fill="black" stroke="black" points="1067.74,-258.072 1075.73,-251.108 1065.14,-251.572 1067.74,-258.072"/>
</g>
<!-- [root] module.container.var.int_port (expand)&#45;&gt;[root] var.env -->
<g id="edge19" class="edge"><title>[root] module.container.var.int_port (expand)&#45;&gt;[root] var.env</title>
<path fill="none" stroke="black" d="M946.344,-287.708C952.55,-269.09 963.898,-239.046 979,-216 1024.97,-145.847 1097.14,-77.8435 1136.71,-43.0319"/>
<polygon fill="black" stroke="black" points="1139.4,-45.3289 1144.64,-36.1184 1134.8,-40.0533 1139.4,-45.3289"/>
</g>
<!-- [root] module.container.var.int_port (expand)&#45;&gt;[root] var.int_port -->
<g id="edge20" class="edge"><title>[root] module.container.var.int_port (expand)&#45;&gt;[root] var.int_port</title>
<path fill="none" stroke="black" d="M928.888,-287.697C923.132,-279.474 916.138,-269.483 909.794,-260.421"/>
<polygon fill="black" stroke="black" points="912.575,-258.29 903.973,-252.104 906.84,-262.304 912.575,-258.29"/>
</g>
<!-- [root] module.container.var.name (expand)&#45;&gt;[root] module.container (expand) -->
<g id="edge21" class="edge"><title>[root] module.container.var.name (expand)&#45;&gt;[root] module.container (expand)</title>
<path fill="none" stroke="black" d="M1553.12,-291.875C1456.88,-279.353 1312.72,-260.596 1216.58,-248.087"/>
<polygon fill="black" stroke="black" points="1216.93,-244.602 1206.56,-246.783 1216.02,-251.544 1216.93,-244.602"/>
</g>
<!-- [root] module.container.var.name (expand)&#45;&gt;[root] var.container_name -->
<g id="edge22" class="edge"><title>[root] module.container.var.name (expand)&#45;&gt;[root] var.container_name</title>
<path fill="none" stroke="black" d="M1654,-287.697C1654,-279.983 1654,-270.712 1654,-262.112"/>
<polygon fill="black" stroke="black" points="1657.5,-262.104 1654,-252.104 1650.5,-262.104 1657.5,-262.104"/>
</g>
<!-- [root] module.container.var.name (expand)&#45;&gt;[root] var.env -->
<g id="edge23" class="edge"><title>[root] module.container.var.name (expand)&#45;&gt;[root] var.env</title>
<path fill="none" stroke="black" d="M1627.98,-288.134C1566.72,-248.665 1408.25,-147.888 1271,-72 1248.2,-59.3948 1222.03,-46.2942 1201.39,-36.2714"/>
<polygon fill="black" stroke="black" points="1202.86,-33.0934 1192.33,-31.8957 1199.82,-39.3967 1202.86,-33.0934"/>
</g>
<!-- [root] module.image.output.image_out (expand)&#45;&gt;[root] module.image.docker_image.image_id (expand) -->
<g id="edge27" class="edge"><title>[root] module.image.output.image_out (expand)&#45;&gt;[root] module.image.docker_image.image_id (expand)</title>
<path fill="none" stroke="black" d="M492,-215.697C492,-207.983 492,-198.712 492,-190.112"/>
<polygon fill="black" stroke="black" points="495.5,-190.104 492,-180.104 488.5,-190.104 495.5,-190.104"/>
</g>
<!-- [root] module.image (expand) -->
<g id="node23" class="node"><title>[root] module.image (expand)</title>
<ellipse fill="none" stroke="black" cx="116" cy="-18" rx="116.484" ry="18"/>
<text text-anchor="middle" x="116" y="-14.3" font-family="Times,serif" font-size="14.00">[root] module.image (expand)</text>
</g>
<!-- [root] module.image.var.image (expand)&#45;&gt;[root] module.image (expand) -->
<g id="edge28" class="edge"><title>[root] module.image.var.image (expand)&#45;&gt;[root] module.image (expand)</title>
<path fill="none" stroke="black" d="M179.666,-72.055C168.935,-63.1128 155.606,-52.0054 143.922,-42.268"/>
<polygon fill="black" stroke="black" points="146.07,-39.5021 136.147,-35.789 141.588,-44.8797 146.07,-39.5021"/>
</g>
<!-- [root] module.image.var.image (expand)&#45;&gt;[root] var.env -->
<g id="edge29" class="edge"><title>[root] module.image.var.image (expand)&#45;&gt;[root] var.env</title>
<path fill="none" stroke="black" d="M307.79,-77.1753C326.199,-75.3229 345.14,-73.521 363,-72 657.261,-46.9411 1013.13,-27.0915 1127.61,-20.9652"/>
<polygon fill="black" stroke="black" points="1127.82,-24.4592 1137.62,-20.4318 1127.45,-17.4691 1127.82,-24.4592"/>
</g>
<!-- [root] module.image.var.image (expand)&#45;&gt;[root] var.image -->
<g id="edge30" class="edge"><title>[root] module.image.var.image (expand)&#45;&gt;[root] var.image</title>
<path fill="none" stroke="black" d="M220.576,-72.055C231.355,-63.1785 244.724,-52.1686 256.485,-42.483"/>
<polygon fill="black" stroke="black" points="258.824,-45.0905 264.319,-36.0316 254.374,-39.687 258.824,-45.0905"/>
</g>
<!-- [root] provider[&quot;registry.terraform.io/kreuzwerker/docker&quot;] (close) -->
<g id="node24" class="node"><title>[root] provider[&quot;registry.terraform.io/kreuzwerker/docker&quot;] (close)</title>
<ellipse fill="none" stroke="black" cx="1215" cy="-594" rx="245.992" ry="18"/>
<text text-anchor="middle" x="1215" y="-590.3" font-family="Times,serif" font-size="14.00">[root] provider[&quot;registry.terraform.io/kreuzwerker/docker&quot;] (close)</text>
</g>
<!-- [root] provider[&quot;registry.terraform.io/kreuzwerker/docker&quot;] (close)&#45;&gt;[root] module.container.docker_container.container_id (expand) -->
<g id="edge33" class="edge"><title>[root] provider[&quot;registry.terraform.io/kreuzwerker/docker&quot;] (close)&#45;&gt;[root] module.container.docker_container.container_id (expand)</title>
<path fill="none" stroke="black" d="M1218.92,-575.959C1225.26,-543.585 1233.76,-472.79 1198,-432 1185.29,-417.498 1149.97,-406.324 1111.25,-398.059"/>
<polygon fill="black" stroke="black" points="1111.84,-394.608 1101.34,-396.019 1110.43,-401.464 1111.84,-394.608"/>
</g>
<!-- [root] root -->
<g id="node25" class="node"><title>[root] root</title>
<ellipse fill="none" stroke="black" cx="994" cy="-666" rx="47.169" ry="18"/>
<text text-anchor="middle" x="994" y="-662.3" font-family="Times,serif" font-size="14.00">[root] root</text>
</g>
<!-- [root] root&#45;&gt;[root] meta.count&#45;boundary (EachMode fixup) -->
<g id="edge34" class="edge"><title>[root] root&#45;&gt;[root] meta.count&#45;boundary (EachMode fixup)</title>
<path fill="none" stroke="black" d="M958.982,-653.908C925.475,-643.295 874.23,-627.064 834.011,-614.325"/>
<polygon fill="black" stroke="black" points="834.893,-610.933 824.303,-611.25 832.779,-617.606 834.893,-610.933"/>
</g>
<!-- [root] root&#45;&gt;[root] provider[&quot;registry.terraform.io/kreuzwerker/docker&quot;] (close) -->
<g id="edge35" class="edge"><title>[root] root&#45;&gt;[root] provider[&quot;registry.terraform.io/kreuzwerker/docker&quot;] (close)</title>
<path fill="none" stroke="black" d="M1029.02,-653.908C1062.19,-643.402 1112.74,-627.39 1152.77,-614.71"/>
<polygon fill="black" stroke="black" points="1153.97,-618.003 1162.44,-611.647 1151.85,-611.33 1153.97,-618.003"/>
</g>
</g>
</svg>
